<svg width="112" height="102" viewBox="0 0 112 102" fill="none" xmlns="http://www.w3.org/2000/svg">
<path d="M108.396 57C108.396 69.7093 102.126 80.1295 92.4403 87.4637C82.7119 94.8304 69.6129 99 56.396 99C43.1744 99 29.8124 94.8272 19.8241 87.443C9.87517 80.0878 3.396 69.6666 3.396 57C3.396 44.4395 11.7638 30.9462 23.9975 20.4186C36.1981 9.91953 51.5298 3 64.396 3C77.0521 3 87.9938 9.72028 95.8726 19.9727C103.765 30.2434 108.396 43.8499 108.396 57Z" fill="white" stroke="#4CE6C4" stroke-width="6"/>
<circle cx="54.696" cy="50.3" r="20.8" fill="white" stroke="#5F05AB" stroke-width="3"/>
<path d="M70.5992 63.6797L80.691 73.7715C81.3877 74.4682 81.3877 75.5978 80.691 76.2945C79.9943 76.9912 78.8648 76.9912 78.1681 76.2945L68.0762 66.2026L70.5992 63.6797Z" fill="#5F05AB"/>
<rect x="43.992" y="49.4082" width="5.35201" height="8.92002" rx="1" fill="#5F05AB"/>
<rect x="52.02" y="44.9473" width="5.35201" height="13.38" rx="1" fill="#5F05AB"/>
<rect x="60.048" y="40.4883" width="5.35201" height="17.84" rx="1" fill="#5F05AB"/>
<rect x="41.316" y="59.2207" width="1.784" height="26.7601" rx="0.892002" transform="rotate(-90 41.316 59.2207)" fill="#5F05AB"/>
</svg>
