<svg width="40" height="40" viewBox="0 0 40 40" fill="none" xmlns="http://www.w3.org/2000/svg">
    <path d="M26.6666 13.334C29.3188 13.334 31.8623 14.3876 33.7377 16.2629C35.6131 18.1383 36.6666 20.6818 36.6666 23.334V35.0007H30V23.334C30 22.4499 29.6488 21.6021 29.0237 20.977C28.3985 20.3518 27.5507 20.0007 26.6666 20.0007C25.7826 20.0007 24.9347 20.3518 24.3096 20.977C23.6845 21.6021 23.3333 22.4499 23.3333 23.334V35.0007H16.6666V23.334C16.6666 20.6818 17.7202 18.1383 19.5956 16.2629C21.4709 14.3876 24.0145 13.334 26.6666 13.334V13.334Z" stroke="#4CE6C4" stroke-width="2" stroke-linecap="round" stroke-linejoin="round"/>
    <path d="M10 15H3.33337V35H10V15Z" stroke="#4CE6C4" stroke-width="2" stroke-linecap="round" stroke-linejoin="round"/>
    <path d="M6.66671 10.0006C8.50765 10.0006 10 8.50827 10 6.66732C10 4.82637 8.50765 3.33398 6.66671 3.33398C4.82576 3.33398 3.33337 4.82637 3.33337 6.66732C3.33337 8.50827 4.82576 10.0006 6.66671 10.0006Z" stroke="#4CE6C4" stroke-width="2" stroke-linecap="round" stroke-linejoin="round"/>
</svg>
