<svg id="Layer_1" data-name="Layer 1" xmlns="http://www.w3.org/2000/svg" viewBox="0 0 410.13 212.14"><defs><style>.cls-1{fill:#fff;}</style></defs><path class="cls-1" d="M396.67,112,324.74,25.22c-.83-1.08-1.71-2.14-2.63-3.17l-.65-.79A58.65,58.65,0,0,0,242,11.18c-.78.55-3.56,2.76-10.48,10.17-5.55,5.94-7.44,8.19-8.18,9.21L205.11,52l-22.64-27.3a61.17,61.17,0,0,0-6.88-7.06L172,14.53a57.82,57.82,0,0,0-77,.15v0a27.23,27.23,0,0,0-2.14,2,61.09,61.09,0,0,0-4.21,4.57l-.36.43c-.81.93-1.6,1.87-2.35,2.84L13.46,112a58.55,58.55,0,0,0,6.28,81.19l3.15,2.8C34,207.09,48.42,212.79,63.52,212.08s29-7.78,39.07-19.9l36.25-43.76c29.1,28.28,60.31,57.8,66.57,60.64,6.25-2.83,37.27-32.09,66.26-60.18l35.87,43.3c10,12.12,23.92,19.19,39.07,19.9.83,0,1.67.06,2.5.06A53.76,53.76,0,0,0,387.24,196l3.15-2.79a58.56,58.56,0,0,0,6.28-81.2ZM231.93,37.48l.64-.84c.6-.73,2.36-2.8,7-7.78,6.33-6.78,8.65-8.59,8.85-8.75h0a47.64,47.64,0,0,1,60.09,3.52l0,0a28.89,28.89,0,0,1,2.75,2.83c.53.59,1,1.15,1.51,1.65.34.35.65.72,1,1.07l2.36,2.86a47.57,47.57,0,0,1-1.32,59c-12.39,12.38-27.3,27.15-42.2,41.73L261,118.7,229.57,81.53,212.24,60.62C222.72,48.29,231.73,37.71,231.93,37.48ZM133.63,11a48,48,0,0,1,15.14,2.46,46.89,46.89,0,0,1,16,9.35L168.37,26A49.59,49.59,0,0,1,174,31.74l23.88,28.8c-11,12.89-22,25.95-25.53,30.18l-34.44,41.57c-14.88-14.6-29.77-29.37-42.15-41.77a47.58,47.58,0,0,1-1.18-59.15l2.08-2.51c.37-.42.74-.83,1.13-1.24s1-1.06,1.5-1.65,1-1.14,1.54-1.67A47.14,47.14,0,0,1,133.63,11ZM94.12,185.16a42.25,42.25,0,0,1-63.57,3L27,185a47.35,47.35,0,0,1-5.09-65.94L74,56.24A58.92,58.92,0,0,0,87.45,97.73l.34.38c6.75,6.75,23.9,23.82,43.14,42.61Zm111.32,11c-10.07-8.26-34.19-31.27-59.64-56.12l35-42.28c3.34-4,13.67-16.22,24.17-28.59l16.13,19.45,31.39,37.17,12.2,14.72C239.41,165.14,215.45,187.94,205.44,196.13ZM383.09,185l-3.27,2.9-.24.23a42.25,42.25,0,0,1-63.57-3l-36.42-44c19.26-18.76,36.45-35.82,43.19-42.55l.34-.39A58.93,58.93,0,0,0,336.6,56.78l51.59,62.28A47.35,47.35,0,0,1,383.09,185Z"/></svg>