<svg width="117" height="104" viewBox="0 0 117 104" fill="none" xmlns="http://www.w3.org/2000/svg">
<path d="M114 53.5C114 67.4823 105.901 79.2985 94.1079 87.7489C82.3027 96.2081 67.1603 101 54 101C27.7795 101 2.99995 79.206 2.99995 53.5C2.99995 34.9956 12.4924 22.4988 25.4701 14.4905C38.5648 6.40998 55.1116 3 68.5 3C94.0907 3 114 27.1505 114 53.5Z" fill="white" stroke="#4CE6C4" stroke-width="6"/>
<path d="M39.8961 71.5C39.8961 71.2239 40.1199 71 40.3961 71H75.3961C75.6722 71 75.8961 71.2239 75.8961 71.5V75.5C75.8961 75.7761 75.6722 76 75.3961 76H40.3961C40.1199 76 39.8961 75.7761 39.8961 75.5V71.5Z" stroke="#57078E" stroke-width="3"/>
<path d="M38.8305 65.5765L33.5826 31.7041C33.5142 31.2624 34.0156 30.9597 34.3746 31.226L48.5245 41.7243C48.7342 41.8799 49.0283 41.8479 49.1997 41.6508L58.4871 30.9703C58.697 30.7289 59.0764 30.744 59.2665 31.0012L67.0833 41.5768C67.2534 41.8069 67.5816 41.8476 67.8027 41.666L80.4246 31.298C80.7741 31.0109 81.2948 31.2985 81.238 31.7473L76.9515 65.5629C76.9198 65.8127 76.7073 66 76.4554 66H39.3246C39.078 66 38.8682 65.8202 38.8305 65.5765Z" stroke="#57078E" stroke-width="3" stroke-linecap="round" stroke-linejoin="bevel"/>
</svg>
