<svg width="110" height="104" viewBox="0 0 110 104" fill="none" xmlns="http://www.w3.org/2000/svg">
<path d="M106.396 47.5C106.396 60.724 102.222 74.2173 94.829 84.3355C87.4634 94.4167 77.0415 101 64.396 101C51.105 101 35.7745 97.0376 23.8484 89.7915C11.9008 82.5322 3.896 72.3472 3.896 60C3.896 46.7962 8.31011 32.3968 16.0019 21.36C23.6899 10.3286 34.3754 3 46.896 3C60.0605 3 75.0952 7.76648 86.7943 15.8617C98.518 23.9738 106.396 35.0466 106.396 47.5Z" fill="white" stroke="#4CE6C4" stroke-width="6"/>
<path d="M31.396 75.2944L57.6571 75.2944M81.7086 75.2944L76.4585 71.5623M81.7086 75.2944L76.4585 78.9998M81.7086 75.2944H57.6571M57.6571 75.2944C27.896 70.2499 37.0835 38.1656 57.6571 39.7228C78.2307 41.2801 79.896 63.9998 63.896 68.9373M63.896 68.9373L66.896 62.4998M63.896 68.9373H71.896" stroke="#5F05AB" stroke-width="3" stroke-linecap="round"/>
<path d="M57.396 38.9993C75.5194 25.8743 52.396 13.9994 48.0767 27.9932C47.146 33.3093 52.7304 34.4993 52.7304 34.4993M52.7304 34.4993L52.396 28.9993M52.7304 34.4993H46.3959" stroke="#5F05AB" stroke-width="3" stroke-linecap="round"/>
</svg>
