<svg width="111" height="106" viewBox="0 0 111 106" fill="none" xmlns="http://www.w3.org/2000/svg">
<path d="M107.5 58C107.5 70.5552 100.134 81.7547 89.0705 89.9441C78.0119 98.1298 63.6318 103 50.5 103C24.6548 103 3 80.0718 3 54C3 41.3692 10.5703 28.6294 21.8518 18.9183C33.116 9.22222 47.5716 3 60.5 3C73.162 3 84.8794 9.97747 93.5344 20.5455C102.189 31.1127 107.5 44.954 107.5 58Z" fill="white" stroke="#4CE6C4" stroke-width="6"/>
<circle cx="56.2949" cy="30.641" r="4.14102" fill="#FFFAFA" stroke="#5F05AB" stroke-width="3"/>
<path d="M50.9999 41.5391C50.9999 39.6061 52.5669 38.0391 54.4999 38.0391H58.3461C60.2791 38.0391 61.8461 39.6061 61.8461 41.5391V44.2698H50.9999V41.5391Z" fill="white" stroke="#5F05AB" stroke-width="3"/>
<circle cx="36.2947" cy="59.102" r="4.14102" fill="#FFFAFA" stroke="#5F05AB" stroke-width="3"/>
<path d="M31 70C31 68.067 32.567 66.5 34.5 66.5H38.3462C40.2792 66.5 41.8462 68.067 41.8462 70V72.7308H31V70Z" fill="white" stroke="#5F05AB" stroke-width="3"/>
<circle cx="76.2948" cy="59.8715" r="4.14102" fill="#FFFAFA" stroke="#5F05AB" stroke-width="3"/>
<path d="M70.9999 70.7695C70.9999 68.8365 72.5669 67.2695 74.4999 67.2695H78.346C80.279 67.2695 81.846 68.8365 81.846 70.7695V73.5003H70.9999V70.7695Z" fill="white" stroke="#5F05AB" stroke-width="3"/>
<path d="M42.1923 53.9106L47.8333 48.2695" stroke="#5F05AB" stroke-width="3"/>
<path d="M64.7564 48.9746L70.3974 54.6156" stroke="#5F05AB" stroke-width="3"/>
</svg>
