<svg width="108" height="100" viewBox="0 0 108 100" fill="none" xmlns="http://www.w3.org/2000/svg">
<path d="M104.5 40C104.5 53.2955 100.661 67.7197 93.5817 78.7332C86.5176 89.7228 76.4745 97 64 97C50.637 97 35.1557 93.5035 23.1138 86.7397C11.0545 79.9661 3 70.2844 3 58C3 45.1304 9.42264 31.3289 19.3392 20.6902C29.2611 10.0456 42.2692 3 55 3C68.418 3 80.8964 6.01803 89.9236 12.129C98.8236 18.1538 104.5 27.2487 104.5 40Z" fill="white" stroke="#4CE6C4" stroke-width="6"/>
<path d="M44.5 29H66.5M44.5 29L33.5 39.5M44.5 29L56 45.5M66.5 29L78.5 39.5M66.5 29L56 45.5M78.5 39.5L56 72M78.5 39.5L56 45.5M56 72L33.5 39.5M56 72V45.5M33.5 39.5L56 45.5" stroke="#57078E" stroke-width="3"/>
</svg>
