<?xml version="1.0" standalone="no"?>
<!DOCTYPE svg PUBLIC "-//W3C//DTD SVG 20010904//EN"
 "http://www.w3.org/TR/2001/REC-SVG-20010904/DTD/svg10.dtd">
<svg version="1.0" xmlns="http://www.w3.org/2000/svg"
 width="1640.000000pt" height="1640.000000pt" viewBox="0 0 1640.000000 1640.000000"
 preserveAspectRatio="xMidYMid meet">
<metadata>
Created by potrace 1.14, written by Peter Selinger 2001-2017
</metadata>
<g transform="translate(0.000000,1640.000000) scale(0.100000,-0.100000)"
fill="#000000" stroke="none">
<path d="M5129 12436 c-2 -2 -31 -7 -64 -11 -90 -10 -123 -15 -199 -32 -37 -8
-75 -17 -85 -18 -9 -2 -16 -4 -16 -5 0 -1 -8 -3 -18 -5 -30 -6 -131 -37 -162
-50 -16 -7 -41 -16 -55 -20 -38 -11 -212 -87 -240 -105 -14 -9 -45 -26 -70
-38 -54 -26 -261 -163 -320 -212 -143 -118 -269 -244 -389 -389 -29 -35 -58
-70 -64 -77 -7 -7 -23 -26 -36 -44 -21 -28 -209 -254 -265 -320 -11 -14 -52
-63 -91 -110 -38 -47 -76 -92 -85 -101 -8 -9 -26 -31 -40 -49 -22 -30 -52 -66
-124 -150 -20 -23 -92 -111 -126 -153 -8 -10 -23 -28 -34 -40 -10 -12 -35 -42
-55 -67 -20 -25 -38 -47 -41 -50 -3 -3 -59 -70 -125 -150 -66 -80 -122 -147
-125 -150 -3 -3 -35 -41 -70 -85 -35 -44 -78 -96 -94 -116 -17 -19 -51 -60
-76 -89 -25 -30 -53 -62 -62 -72 -10 -10 -18 -22 -18 -28 0 -5 -6 -13 -13 -17
-7 -4 -42 -44 -77 -88 -35 -44 -74 -91 -86 -105 -12 -14 -57 -68 -100 -120
-42 -52 -84 -102 -93 -111 -9 -9 -23 -26 -31 -38 -8 -13 -28 -37 -43 -54 -39
-43 -54 -61 -112 -134 -28 -35 -53 -63 -57 -63 -5 0 -8 -6 -8 -14 0 -8 -4 -16
-9 -18 -4 -1 -42 -43 -82 -93 -40 -49 -78 -95 -84 -101 -5 -6 -25 -29 -43 -52
-19 -23 -41 -50 -50 -60 -10 -11 -30 -37 -47 -58 -16 -21 -42 -51 -56 -66 -14
-15 -36 -42 -50 -59 -13 -18 -41 -53 -63 -78 -21 -25 -51 -62 -67 -81 -16 -19
-35 -42 -42 -50 -7 -8 -42 -51 -78 -95 -35 -43 -71 -86 -79 -96 -8 -9 -28 -33
-45 -54 -16 -21 -35 -43 -40 -49 -6 -6 -24 -29 -40 -51 -17 -22 -32 -42 -36
-45 -3 -3 -33 -48 -67 -100 -34 -52 -66 -100 -70 -105 -4 -6 -8 -17 -10 -25
-2 -7 -11 -25 -21 -39 -17 -25 -35 -61 -86 -176 -19 -43 -54 -134 -85 -225
-12 -35 -34 -113 -35 -125 0 -5 -4 -16 -9 -23 -4 -7 -5 -16 -2 -19 3 -3 1 -12
-5 -20 -6 -7 -9 -13 -6 -13 3 0 1 -15 -4 -32 -5 -18 -12 -55 -15 -83 -4 -27
-8 -52 -10 -56 -25 -44 -25 -560 1 -684 3 -11 7 -36 10 -55 4 -33 14 -83 19
-105 2 -5 6 -23 10 -40 4 -16 10 -37 13 -45 4 -8 5 -21 4 -27 -1 -7 3 -22 9
-34 6 -11 14 -30 16 -42 8 -37 12 -47 46 -137 55 -143 143 -320 209 -418 16
-24 29 -45 29 -48 0 -4 110 -155 119 -164 3 -3 35 -39 71 -80 75 -86 148 -159
246 -245 37 -33 79 -71 94 -85 115 -110 298 -260 318 -260 6 0 12 -4 14 -8 6
-14 180 -117 278 -164 126 -60 308 -126 390 -142 23 -5 40 -9 90 -21 39 -10
56 -13 105 -20 28 -3 66 -9 85 -12 52 -9 406 -9 475 0 93 12 111 15 147 22 33
6 162 35 186 41 7 2 13 3 15 3 16 1 282 103 328 127 16 8 32 14 35 13 4 0 10
3 13 8 3 4 22 16 41 26 73 39 95 52 102 62 5 7 8 7 8 0 0 -7 3 -7 8 0 4 6 34
28 67 50 33 22 62 43 63 48 2 4 10 7 17 7 7 0 15 4 17 8 2 4 23 23 47 42 82
64 244 221 314 305 65 77 110 132 126 150 101 123 157 191 161 195 3 3 21 25
40 50 19 25 40 50 46 55 6 6 28 32 50 60 21 27 46 56 54 65 8 9 31 36 50 60
19 24 47 58 61 75 14 16 35 41 46 55 12 14 40 48 63 75 51 61 52 62 169 205
52 63 99 120 105 125 6 6 23 26 38 47 15 20 33 42 40 50 7 7 33 38 58 68 24
30 51 62 60 71 8 9 29 33 45 54 17 22 40 50 52 64 13 15 26 31 30 36 30 40 89
112 99 120 6 6 23 27 39 48 15 20 31 37 36 37 5 0 65 -55 135 -122 248 -241
325 -315 474 -458 83 -80 182 -174 219 -210 37 -36 141 -135 231 -220 90 -85
180 -171 201 -190 32 -31 167 -157 278 -260 21 -19 84 -78 141 -130 57 -52
120 -111 141 -130 20 -19 53 -48 72 -65 19 -16 59 -52 89 -80 61 -56 186 -166
265 -234 15 -13 48 -41 73 -62 25 -22 50 -43 55 -47 66 -51 103 -80 119 -95
11 -10 45 -34 76 -55 30 -20 57 -40 58 -44 8 -17 54 -7 94 20 69 46 83 56 129
92 24 19 50 39 57 45 7 5 28 24 47 40 19 17 47 40 62 52 30 23 43 34 143 121
35 31 87 77 115 101 27 24 52 47 55 50 3 3 28 26 55 51 97 87 239 215 276 250
20 19 77 71 125 115 48 44 112 104 142 133 30 28 55 52 57 52 1 0 35 32 75 70
40 39 77 70 81 70 5 0 9 7 9 15 0 8 3 15 8 15 8 0 59 47 292 270 91 86 188
179 217 206 81 78 335 321 497 478 l149 144 26 -31 c14 -18 28 -34 31 -37 3
-3 57 -68 120 -145 63 -77 126 -153 140 -169 14 -16 34 -40 45 -52 11 -13 34
-40 50 -61 17 -21 65 -79 108 -130 42 -51 77 -94 77 -97 0 -2 15 -20 33 -39
17 -19 43 -49 57 -66 14 -18 34 -43 45 -55 11 -13 36 -43 55 -67 19 -24 73
-89 120 -144 47 -56 96 -116 110 -134 14 -18 36 -45 50 -61 14 -15 32 -36 40
-47 8 -10 35 -43 60 -73 25 -30 52 -63 60 -73 20 -24 57 -68 74 -87 7 -8 35
-42 61 -75 26 -33 53 -64 59 -70 6 -5 29 -32 51 -60 155 -194 445 -417 706
-544 97 -46 302 -127 334 -131 3 0 10 -2 17 -4 12 -4 76 -19 136 -31 12 -3 32
-7 44 -10 12 -2 43 -7 69 -10 27 -3 69 -9 93 -14 25 -5 132 -7 238 -6 182 3
220 6 307 20 20 4 45 8 56 10 11 1 43 8 70 15 28 6 60 14 73 16 12 3 59 16
105 31 45 15 85 28 90 29 4 1 9 3 12 4 3 1 8 3 13 5 4 1 21 7 37 14 17 7 35
14 40 15 44 8 353 180 398 220 9 9 20 16 23 16 14 0 172 131 259 215 22 22 81
76 130 120 99 88 153 141 235 235 30 34 62 70 71 79 8 10 40 53 70 96 30 44
57 84 62 90 18 24 57 86 57 91 0 2 11 22 25 44 14 22 22 40 18 40 -5 0 -3 4 3
8 13 8 64 116 103 216 15 39 32 80 36 91 4 11 9 25 11 30 1 6 9 30 17 55 16
48 29 96 33 120 2 8 9 42 18 75 14 58 24 114 31 165 2 14 7 54 11 90 17 130
10 460 -11 585 -3 17 -7 44 -9 60 -3 27 -15 85 -31 153 -3 12 -7 31 -9 41 -10
43 -71 229 -89 271 -76 175 -92 209 -151 310 -55 95 -162 251 -198 291 -12 14
-61 72 -108 130 -47 57 -92 113 -101 124 -10 11 -43 52 -76 90 -32 39 -61 72
-65 73 -5 2 -8 8 -8 12 0 5 -10 20 -22 33 -13 12 -39 42 -58 66 -19 24 -43 53
-54 65 -10 11 -30 37 -45 56 -14 19 -33 41 -41 50 -14 16 -47 54 -125 150 -76
92 -111 135 -165 199 -30 36 -59 71 -65 78 -5 7 -15 19 -22 27 -7 8 -47 56
-90 108 -42 51 -82 98 -88 105 -5 6 -26 31 -45 54 -19 24 -50 60 -67 80 -18
20 -33 39 -33 43 0 4 -15 22 -32 40 -18 19 -43 47 -55 62 -12 16 -31 40 -43
54 -40 47 -134 160 -155 188 -5 7 -19 23 -30 35 -19 21 -32 37 -105 127 -19
24 -45 54 -56 66 -12 12 -32 37 -44 55 -13 17 -35 44 -49 60 -14 15 -31 34
-36 41 -15 19 -404 489 -429 518 -11 14 -64 77 -116 140 -52 63 -97 117 -100
120 -3 3 -25 30 -50 60 -25 30 -49 60 -55 66 -5 7 -26 31 -44 54 -19 23 -41
48 -48 56 -7 7 -13 15 -13 18 0 3 -8 14 -17 24 -15 14 -172 203 -208 250 -5 7
-17 21 -26 30 -9 9 -43 49 -76 87 -70 82 -170 183 -238 240 -26 22 -56 48 -66
58 -11 9 -23 17 -29 17 -5 0 -13 6 -17 13 -26 42 -347 231 -493 291 -36 15
-74 31 -85 35 -11 5 -32 13 -47 19 -33 13 -222 69 -260 76 -16 4 -40 8 -55 11
-16 3 -35 8 -43 10 -30 9 -83 16 -230 32 -119 13 -400 7 -535 -12 -84 -12 -94
-14 -172 -31 -16 -3 -35 -7 -43 -8 -8 -2 -22 -6 -30 -8 -14 -5 -151 -45 -175
-51 -12 -4 -108 -40 -150 -58 -16 -7 -32 -13 -35 -14 -3 -1 -16 -6 -30 -12
-14 -6 -29 -11 -34 -11 -5 0 -12 -4 -15 -9 -3 -4 -42 -26 -85 -48 -100 -50
-308 -188 -361 -238 -152 -146 -252 -249 -450 -462 -47 -51 -138 -153 -164
-185 -11 -14 -26 -31 -32 -38 -6 -7 -34 -41 -62 -75 -58 -70 -95 -113 -117
-137 -8 -9 -33 -38 -55 -65 -21 -27 -48 -59 -60 -71 -11 -12 -27 -31 -35 -41
-32 -39 -116 -138 -130 -153 -17 -19 -44 -50 -115 -135 -27 -33 -52 -62 -55
-65 -3 -3 -31 -35 -62 -72 l-56 -67 -38 47 c-21 26 -41 49 -44 52 -5 5 -73 87
-110 133 -8 11 -20 24 -25 31 -6 6 -53 63 -105 126 -52 63 -105 126 -116 140
-12 14 -79 95 -150 180 -70 85 -132 157 -136 158 -4 2 -8 8 -8 12 0 5 -12 23
-27 39 -16 16 -33 37 -40 45 -133 160 -183 217 -267 301 -56 55 -125 120 -155
145 -30 25 -61 52 -70 61 -9 8 -45 39 -81 69 -36 29 -67 56 -70 60 -5 6 -243
163 -285 187 -47 27 -215 107 -280 133 -96 38 -261 90 -285 90 -11 0 -20 5
-20 11 0 5 -4 8 -9 4 -5 -3 -31 0 -58 6 -65 15 -81 18 -128 25 -22 3 -51 8
-65 11 -31 6 -495 14 -501 9z m456 -451 c35 -5 87 -14 175 -31 114 -22 335
-101 434 -156 103 -56 175 -99 200 -119 6 -5 40 -30 76 -57 62 -45 93 -71 144
-117 12 -11 53 -47 91 -80 77 -68 178 -167 215 -211 14 -16 51 -59 83 -96 31
-36 57 -69 57 -72 0 -3 10 -16 23 -28 12 -13 40 -46 62 -72 22 -27 57 -70 79
-95 41 -50 40 -48 141 -171 38 -47 76 -93 85 -102 8 -9 20 -23 25 -30 10 -13
152 -183 170 -204 6 -7 21 -26 35 -44 26 -32 60 -73 84 -100 7 -8 43 -52 80
-98 l67 -82 -38 -47 c-21 -26 -45 -54 -53 -63 -17 -18 -64 -73 -125 -145 -22
-27 -45 -53 -50 -59 -6 -6 -33 -38 -60 -71 -28 -33 -54 -65 -60 -71 -5 -6 -30
-35 -55 -64 -25 -29 -49 -58 -55 -64 -9 -10 -78 -94 -115 -140 -8 -10 -30 -33
-47 -52 -18 -19 -33 -39 -33 -44 0 -6 -3 -10 -7 -10 -5 0 -30 -28 -58 -62 -27
-34 -60 -74 -72 -88 -13 -14 -26 -29 -30 -35 -11 -14 -166 -197 -178 -211 -5
-6 -26 -30 -45 -54 -19 -24 -60 -73 -90 -109 -30 -36 -58 -70 -63 -76 -4 -5
-17 -21 -28 -35 -12 -14 -37 -45 -57 -69 -21 -25 -44 -52 -52 -61 -8 -8 -31
-36 -50 -60 -19 -25 -43 -54 -52 -65 -9 -11 -25 -30 -35 -41 -10 -12 -34 -41
-53 -65 -19 -23 -62 -74 -95 -114 -33 -39 -76 -91 -95 -114 -19 -24 -44 -54
-55 -67 -11 -12 -27 -31 -35 -41 -38 -47 -107 -130 -126 -153 -12 -14 -58 -70
-103 -125 -45 -55 -90 -109 -100 -120 -10 -11 -44 -51 -75 -90 -32 -38 -74
-90 -94 -114 -20 -23 -38 -47 -40 -52 -8 -21 -31 -3 -141 105 -64 63 -224 221
-356 351 -728 717 -1215 1207 -1265 1274 -57 77 -123 181 -150 236 -8 17 -17
32 -20 35 -10 9 -101 231 -106 257 -3 15 -8 31 -12 37 -3 6 -7 16 -9 21 -1 6
-9 35 -17 65 -8 30 -18 71 -21 90 -3 19 -10 54 -15 76 -21 95 -31 403 -16 519
4 28 8 64 10 82 3 18 10 58 16 90 7 32 14 65 15 73 2 8 4 16 4 18 1 1 2 5 2
10 1 4 6 18 11 32 5 14 11 32 13 41 13 64 80 227 137 337 91 172 199 317 376
500 17 19 32 36 32 38 0 4 38 39 94 86 12 10 35 29 51 44 64 54 237 164 344
217 61 31 111 54 111 50 0 -3 6 -1 13 5 13 10 182 69 220 76 12 3 22 5 22 6 0
2 47 12 119 25 16 3 32 8 36 10 4 2 42 7 86 11 43 4 81 8 83 10 5 5 342 -4
386 -11z m5660 1 c61 -7 100 -12 145 -21 74 -14 126 -26 164 -37 22 -6 43 -12
46 -13 38 -8 277 -102 295 -116 6 -4 37 -22 70 -39 32 -17 86 -49 118 -71 33
-21 61 -39 63 -39 4 0 13 -7 109 -85 90 -74 321 -313 347 -359 5 -9 20 -28 34
-43 30 -33 114 -159 114 -172 0 -5 4 -11 8 -13 15 -5 132 -246 147 -300 2 -5
3 -9 5 -10 1 -2 3 -10 6 -18 2 -8 19 -67 38 -130 19 -63 37 -140 41 -170 4
-30 8 -57 10 -60 7 -11 18 -181 18 -275 1 -88 -7 -199 -18 -275 -14 -89 -16
-100 -29 -157 -9 -40 -45 -160 -54 -184 -6 -15 -8 -30 -5 -33 4 -3 0 -6 -7 -6
-7 0 -11 -3 -7 -6 8 -8 -69 -178 -126 -279 -33 -59 -100 -159 -112 -167 -5 -4
-6 -8 -2 -8 4 0 -6 -15 -22 -32 -17 -18 -31 -36 -31 -39 0 -9 -650 -655 -1448
-1440 l-261 -257 -108 132 c-59 72 -112 136 -118 142 -5 6 -21 25 -35 43 -14
18 -30 38 -35 44 -6 7 -66 80 -135 162 -69 83 -129 155 -135 161 -5 6 -30 35
-55 64 -25 30 -61 72 -80 95 -20 23 -41 48 -47 56 -7 8 -32 37 -55 65 -24 28
-54 64 -67 80 -34 40 -124 146 -136 160 -5 6 -26 30 -45 53 -19 24 -53 63 -75
88 -22 25 -46 54 -53 65 -8 10 -23 29 -35 42 -12 12 -42 47 -67 76 -25 29 -50
58 -55 64 -6 6 -30 36 -55 66 -25 30 -47 57 -50 60 -3 3 -25 30 -50 60 -45 55
-92 109 -120 140 -8 8 -27 31 -41 50 -15 19 -37 47 -50 61 -25 27 -37 42 -109
129 -25 30 -47 57 -50 60 -3 3 -48 57 -100 120 -52 63 -99 120 -105 126 -5 6
-21 26 -35 44 -14 18 -36 45 -50 60 -14 15 -38 45 -55 66 -30 38 -80 99 -100
120 -5 6 -21 25 -35 43 -14 18 -29 38 -35 44 -41 49 -44 44 90 193 6 6 28 33
50 60 22 27 51 61 65 76 14 14 32 35 40 45 30 37 115 138 120 143 5 4 72 84
125 149 11 13 27 31 36 40 9 9 75 86 146 172 72 86 139 166 150 179 19 23 32
37 163 180 114 125 389 401 420 423 132 90 217 140 320 186 121 54 146 65 190
76 3 1 12 5 20 8 28 12 200 56 200 51 0 -3 5 -2 12 2 7 4 25 9 42 11 16 2 41
6 55 8 14 3 58 8 96 11 39 3 71 7 72 8 5 5 249 -2 308 -8z m-8288 -1953 c2
-160 8 -268 18 -313 3 -14 7 -43 10 -65 5 -38 8 -55 35 -170 20 -82 71 -249
81 -261 5 -6 10 -19 12 -30 6 -29 51 -134 92 -214 13 -25 34 -65 47 -90 13
-25 26 -46 31 -48 4 -2 7 -8 7 -14 0 -12 120 -187 174 -253 53 -65 800 -809
1624 -1615 78 -77 142 -143 142 -147 0 -5 -14 -23 -30 -42 -16 -18 -42 -49
-57 -68 -15 -20 -35 -43 -44 -52 -8 -9 -31 -36 -50 -61 -18 -24 -41 -52 -49
-60 -8 -9 -31 -36 -51 -61 -62 -76 -259 -313 -277 -334 -10 -11 -38 -45 -62
-75 -25 -30 -49 -60 -55 -66 -5 -6 -23 -28 -40 -48 -16 -21 -38 -47 -49 -59
-10 -12 -44 -53 -75 -92 -31 -38 -63 -77 -71 -85 -8 -8 -44 -51 -80 -95 -78
-96 -87 -107 -136 -166 -77 -91 -119 -143 -133 -162 -8 -12 -22 -28 -30 -37
-22 -23 -54 -61 -135 -160 -191 -233 -336 -360 -537 -472 -25 -14 -54 -30 -65
-36 -10 -6 -35 -18 -54 -26 -19 -8 -55 -23 -80 -34 -144 -63 -429 -122 -595
-123 -46 -1 -228 11 -260 16 -63 10 -138 24 -165 31 -14 3 -33 7 -42 7 -10 1
-18 5 -18 9 0 4 -9 8 -20 8 -30 0 -118 33 -245 91 -168 76 -325 185 -464 319
-31 30 -85 80 -120 110 -105 91 -234 223 -291 296 -8 10 -30 38 -47 60 -18 23
-33 46 -33 52 0 6 -4 12 -8 14 -25 11 -171 287 -202 383 -7 22 -19 54 -26 70
-12 28 -37 120 -48 175 -9 47 -15 72 -21 91 -4 11 -8 39 -10 62 -2 23 -7 69
-10 102 -13 111 -6 381 10 445 2 8 7 35 10 59 4 23 10 54 15 67 5 13 8 24 5
24 -2 0 1 15 6 33 6 17 12 43 15 57 24 125 202 497 271 568 7 7 13 16 13 20 0
4 10 19 23 34 13 15 32 39 43 54 10 14 26 34 34 43 9 9 47 54 85 101 39 47 80
96 91 110 12 14 68 81 125 150 57 69 108 130 114 136 5 6 24 28 40 49 17 21
35 43 40 49 6 6 42 49 80 96 38 47 74 90 80 96 5 7 24 29 40 49 17 21 35 43
40 49 14 16 153 183 195 235 19 24 49 59 65 77 17 19 39 46 50 60 25 31 50 62
78 94 12 14 34 41 48 60 15 19 38 48 53 63 14 15 52 60 83 100 32 40 62 77 68
83 5 6 26 30 45 54 19 24 40 48 45 54 6 6 28 34 50 61 22 28 43 52 46 55 7 5
243 291 299 360 19 24 43 52 53 62 9 10 17 20 17 23 0 2 10 15 23 27 27 28 89
105 100 124 4 8 9 14 10 14 1 0 3 -71 4 -157z m10571 55 c97 -117 101 -122
115 -138 7 -8 42 -51 78 -95 35 -44 72 -89 83 -100 10 -11 30 -36 45 -55 14
-19 31 -39 37 -45 6 -5 42 -48 80 -95 38 -47 71 -87 74 -90 5 -5 86 -104 105
-128 6 -7 17 -21 25 -30 9 -9 36 -42 60 -72 25 -30 47 -57 50 -60 3 -3 25 -30
50 -60 25 -30 49 -60 55 -66 5 -7 17 -20 25 -31 52 -65 109 -133 137 -163 18
-19 33 -38 33 -42 0 -4 10 -17 23 -30 12 -13 51 -59 87 -103 36 -44 74 -90 85
-101 11 -12 43 -50 70 -85 28 -35 57 -71 65 -80 8 -9 29 -33 45 -53 17 -20 39
-47 50 -60 11 -12 34 -40 50 -61 17 -21 35 -43 40 -49 11 -11 131 -156 200
-241 22 -26 67 -81 100 -121 33 -39 76 -91 94 -114 19 -23 41 -48 48 -56 7 -7
13 -17 13 -23 0 -6 4 -11 9 -11 17 0 159 -226 214 -340 49 -103 100 -231 112
-285 2 -11 11 -45 19 -75 50 -177 68 -412 50 -625 -8 -101 -11 -130 -14 -130
-2 0 -4 -11 -5 -25 -5 -50 -37 -185 -47 -197 -6 -7 -8 -13 -5 -13 7 0 -44
-152 -70 -210 -34 -77 -75 -158 -103 -205 -17 -27 -33 -58 -36 -67 -4 -10 -10
-18 -15 -18 -5 0 -9 -6 -9 -13 0 -7 -11 -24 -25 -39 -14 -15 -25 -30 -25 -34
0 -3 -12 -21 -27 -38 -16 -18 -46 -54 -68 -81 -44 -54 -93 -103 -182 -185
-324 -298 -326 -299 -335 -294 -5 3 -8 1 -8 -4 0 -11 -114 -92 -129 -92 -6 0
-11 -4 -11 -9 0 -11 -242 -130 -280 -138 -17 -3 -30 -9 -30 -13 0 -3 -6 -7
-12 -8 -7 -1 -61 -15 -120 -31 -164 -45 -255 -56 -453 -55 -164 0 -251 10
-370 41 -33 9 -69 17 -80 19 -51 7 -186 62 -303 121 -142 73 -364 229 -377
266 -4 10 -9 16 -12 14 -5 -5 -101 94 -149 153 -16 19 -31 37 -34 40 -3 3 -21
25 -41 50 -20 25 -47 56 -59 70 -12 14 -43 51 -68 82 -26 32 -50 58 -54 58 -5
0 -8 5 -8 11 0 9 -35 53 -115 145 -5 6 -21 26 -35 43 -14 18 -32 40 -40 50 -8
9 -37 44 -65 76 -27 33 -53 62 -58 63 -4 2 -5 8 -1 13 3 5 1 9 -4 9 -5 0 -29
25 -53 56 -24 31 -49 61 -55 68 -6 6 -49 58 -97 116 -48 58 -102 122 -120 144
-50 60 -60 72 -93 113 -76 93 -189 228 -194 233 -3 3 -34 41 -70 85 -35 44
-67 82 -70 85 -3 3 -36 41 -72 86 l-67 81 112 111 c269 266 432 422 439 422 4
0 8 4 8 9 0 5 28 36 63 69 274 264 1147 1132 1147 1142 0 4 11 20 25 36 14 16
30 34 35 41 19 24 142 217 148 232 3 9 8 18 11 21 6 5 84 163 102 205 50 119
103 273 116 335 9 43 11 55 13 55 3 0 9 30 24 115 8 47 17 98 20 114 11 59 20
224 19 339 0 64 0 117 2 117 1 0 29 -33 63 -72z m-5318 -425 c0 -5 13 -22 28
-40 25 -29 137 -163 172 -206 8 -10 25 -31 38 -45 13 -15 35 -43 50 -62 15
-19 35 -44 45 -55 10 -11 33 -37 50 -59 18 -21 41 -49 52 -61 51 -58 65 -76
65 -83 0 -4 9 -13 20 -20 11 -7 20 -17 20 -23 0 -5 10 -20 23 -33 26 -27 49
-53 147 -171 41 -50 79 -95 85 -101 5 -6 28 -33 50 -60 22 -26 56 -66 75 -89
79 -92 137 -161 173 -204 21 -25 51 -60 65 -77 15 -17 41 -48 57 -68 17 -21
37 -46 46 -55 8 -9 40 -45 70 -81 30 -35 59 -70 64 -76 6 -6 23 -28 39 -48 16
-21 42 -52 58 -69 15 -18 34 -38 40 -46 7 -8 30 -35 51 -60 22 -25 48 -57 60
-71 11 -14 42 -50 67 -80 26 -30 56 -66 66 -79 11 -12 30 -36 44 -51 53 -59
70 -81 70 -90 0 -6 4 -10 8 -10 5 0 44 -44 88 -97 43 -54 88 -109 100 -123 68
-79 284 -342 284 -346 0 -5 -53 -56 -355 -349 -252 -243 -294 -284 -521 -502
-196 -187 -224 -215 -434 -413 -79 -74 -165 -156 -191 -182 -27 -26 -49 -46
-49 -45 0 1 -34 -30 -77 -70 -42 -41 -107 -101 -145 -136 -38 -34 -86 -78
-106 -97 -21 -19 -80 -73 -132 -120 -52 -47 -105 -95 -118 -107 -12 -13 -25
-23 -27 -23 -3 0 -20 -15 -39 -32 -36 -35 -55 -52 -127 -110 l-45 -37 -40 32
c-21 17 -51 43 -65 57 -15 14 -37 34 -50 44 -44 36 -223 196 -309 276 -21 19
-79 73 -130 120 -51 47 -132 122 -179 166 -47 45 -104 98 -126 119 -60 56
-300 283 -365 345 -31 30 -125 120 -208 200 -198 189 -340 327 -654 632 l-257
251 66 81 c37 45 69 83 72 86 3 3 26 30 51 60 70 86 74 90 92 111 9 11 31 39
50 62 18 22 40 48 48 57 8 8 31 36 50 60 19 25 37 47 40 50 3 3 102 122 220
265 118 143 217 262 220 265 3 3 23 28 45 55 22 28 50 61 61 75 12 14 61 72
108 130 48 58 95 114 105 125 9 11 49 58 87 105 81 99 112 137 137 162 9 10
17 21 17 24 0 4 8 14 18 23 9 9 38 41 62 71 25 30 55 66 68 80 13 14 39 46 60
73 20 26 40 47 44 47 4 0 8 7 8 15 0 8 4 15 8 15 5 0 33 30 63 68 29 37 57 69
60 72 3 3 24 26 45 51 21 25 62 72 89 104 28 32 56 67 64 77 7 11 26 34 42 51
34 36 37 40 105 122 27 32 56 66 64 75 8 9 33 37 54 63 37 44 56 57 56 40z"/>
</g>
</svg>
